<svg xmlns="http://www.w3.org/2000/svg" viewBox="0 0 1200 320" width="1200" height="320" role="img" aria-label="Mohammad Sadra Iranmanesh — banner">
  <defs>
    <linearGradient id="vig" x1="0" y1="0" x2="1" y2="1">
      <stop offset="0" stop-color="#17131F"/><stop offset="1" stop-color="#121019"/>
    </linearGradient>
  </defs>
  <rect x="0" y="0" width="1200" height="320" rx="18" fill="url(#vig)"/>
  <rect x="0.5" y="0.5" width="1199" height="319" rx="18" fill="none" stroke="#2A2436" stroke-width="1"/>

  <!-- plot -->
  <g opacity="0.9">
    <line x1="775" y1="52" x2="775" y2="268" stroke="#2A2436" stroke-width="1"/><line x1="845" y1="52" x2="845" y2="268" stroke="#2A2436" stroke-width="1"/><line x1="915" y1="52" x2="915" y2="268" stroke="#2A2436" stroke-width="1"/><line x1="985" y1="52" x2="985" y2="268" stroke="#2A2436" stroke-width="1"/><line x1="1055" y1="52" x2="1055" y2="268" stroke="#2A2436" stroke-width="1"/><line x1="1125" y1="52" x2="1125" y2="268" stroke="#2A2436" stroke-width="1"/><line x1="735" y1="92" x2="1150" y2="92" stroke="#2A2436" stroke-width="1"/><line x1="735" y1="147" x2="1150" y2="147" stroke="#2A2436" stroke-width="1"/><line x1="735" y1="202" x2="1150" y2="202" stroke="#2A2436" stroke-width="1"/><line x1="735" y1="257" x2="1150" y2="257" stroke="#2A2436" stroke-width="1"/>
    <line x1="735" y1="268" x2="1150" y2="268" stroke="#3a3350" stroke-width="1"/>
    <line x1="735" y1="52" x2="735" y2="268" stroke="#3a3350" stroke-width="1"/>
    <path d="M 765 72 C 905 142, 985 202, 1130 250"
          fill="none" stroke="#EDE7DC" stroke-width="1.5" stroke-dasharray="5 5" opacity="0.45"/>
    <circle cx="822.0" cy="191.0" r="5.2" fill="#E8A24C" opacity="0.92"/><circle cx="796.9" cy="175.8" r="5.2" fill="#E8A24C" opacity="0.92"/><circle cx="834.0" cy="223.9" r="5.2" fill="#E8A24C" opacity="0.92"/><circle cx="861.6" cy="199.8" r="5.2" fill="#E8A24C" opacity="0.92"/><circle cx="795.4" cy="215.1" r="5.2" fill="#E8A24C" opacity="0.92"/><circle cx="842.8" cy="165.1" r="5.2" fill="#E8A24C" opacity="0.92"/><circle cx="836.3" cy="205.5" r="5.2" fill="#E8A24C" opacity="0.92"/><circle cx="851.4" cy="231.0" r="5.2" fill="#E8A24C" opacity="0.92"/><circle cx="863.9" cy="203.7" r="5.2" fill="#E8A24C" opacity="0.92"/><circle cx="800.6" cy="232.2" r="5.2" fill="#E8A24C" opacity="0.92"/><circle cx="858.5" cy="217.2" r="5.2" fill="#E8A24C" opacity="0.92"/><circle cx="1082.9" cy="105.2" r="5.2" fill="#5FC9C2" opacity="0.92"/><circle cx="1093.1" cy="101.9" r="5.2" fill="#5FC9C2" opacity="0.92"/><circle cx="1002.6" cy="86.9" r="5.2" fill="#5FC9C2" opacity="0.92"/><circle cx="1008.4" cy="104.2" r="5.2" fill="#5FC9C2" opacity="0.92"/><circle cx="1082.6" cy="110.2" r="5.2" fill="#5FC9C2" opacity="0.92"/><circle cx="1080.0" cy="72.2" r="5.2" fill="#5FC9C2" opacity="0.92"/><circle cx="1035.4" cy="77.1" r="5.2" fill="#5FC9C2" opacity="0.92"/><circle cx="1064.4" cy="120.3" r="5.2" fill="#5FC9C2" opacity="0.92"/><circle cx="1051.5" cy="144.2" r="5.2" fill="#5FC9C2" opacity="0.92"/><circle cx="1014.7" cy="80.0" r="5.2" fill="#5FC9C2" opacity="0.92"/><circle cx="1005.6" cy="64.0" r="5.2" fill="#5FC9C2" opacity="0.92"/><circle cx="965.0" cy="150.0" r="5.2" fill="#E8A24C" opacity="0.92"/><circle cx="965.0" cy="150.0" r="10" fill="none" stroke="#EDE7DC" stroke-width="1.4" opacity="0.85"/><circle cx="915.0" cy="180.0" r="5.2" fill="#5FC9C2" opacity="0.92"/><circle cx="915.0" cy="180.0" r="10" fill="none" stroke="#EDE7DC" stroke-width="1.4" opacity="0.85"/>
  </g>

  <!-- text -->
  <text x="70" y="132" font-family="Georgia, 'Times New Roman', serif" font-size="50" font-weight="700" fill="#EDE7DC" letter-spacing="-0.5">Mohammad Sadra Iranmanesh</text>
  <rect x="72" y="150" width="300" height="2" fill="#E8A24C"/>
  <text x="72" y="190" font-family="Georgia, serif" font-size="22" font-style="italic" fill="#A79FB0">Teaching machines to make sense of language.</text>
  <text x="72" y="228" font-family="'Courier New', monospace" font-size="14.5" fill="#5FC9C2" letter-spacing="1.5">CS · AMIRKABIR UNIVERSITY OF TECHNOLOGY · NLP / LLMs</text>
</svg>